<svg width="40" height="40" viewBox="0 0 40 40" fill="none" xmlns="http://www.w3.org/2000/svg">
<rect width="40.0003" height="40" rx="20" fill="#25d366" fill-opacity="0.3"/>
<g filter="url(#filter0_ddd)">
<path d="M8 32L9.69589 25.8388C8.65315 24.0361 8.0974 21.9881 8.10313 19.8945C8.10313 13.334 13.4658 8 20.0546 8C23.2516 8 26.2537 9.23794 28.5054 11.4856C30.7627 13.7333 32.006 16.7226 32.0003 19.9002C32.0003 26.4607 26.6376 31.7946 20.0488 31.7946H20.0431C18.0436 31.7946 16.0784 31.2926 14.3309 30.3456L8 32ZM14.6289 28.1892L14.9898 28.406C16.5138 29.3073 18.2613 29.7808 20.0431 29.7865H20.0488C25.5204 29.7865 29.9778 25.3539 29.9778 19.9002C29.9778 17.2589 28.9465 14.7773 27.073 12.9061C25.1995 11.0349 22.7015 10.0081 20.0488 10.0081C14.5716 10.0081 10.1141 14.4407 10.1141 19.8945C10.1141 21.7599 10.6355 23.5797 11.6324 25.1543L11.8673 25.5308L10.8704 29.1704L14.6289 28.1892Z" fill="white"/>
<path d="M8.4126 31.583L10.0512 25.6329C9.04283 23.8929 8.51 21.9134 8.51 19.8939C8.51 13.5616 13.6893 8.41016 20.0432 8.41016C23.1313 8.41016 26.0246 9.60816 28.2018 11.776C30.379 13.9438 31.5764 16.8304 31.5764 19.8996C31.5764 26.2319 26.3971 31.3833 20.0432 31.3833H20.0375C18.1067 31.3833 16.2103 30.8984 14.5258 29.9856L8.4126 31.583Z" fill="url(#paint0_linear)"/>
<path d="M8 32L9.69589 25.8388C8.65315 24.0361 8.0974 21.9881 8.10313 19.8945C8.10313 13.334 13.4658 8 20.0546 8C23.2516 8 26.2537 9.23794 28.5054 11.4856C30.7627 13.7333 32.006 16.7226 32.0003 19.9002C32.0003 26.4607 26.6376 31.7946 20.0488 31.7946H20.0431C18.0436 31.7946 16.0784 31.2926 14.3309 30.3456L8 32ZM14.6289 28.1892L14.9898 28.406C16.5138 29.3073 18.2613 29.7808 20.0431 29.7865H20.0488C25.5204 29.7865 29.9778 25.3539 29.9778 19.9002C29.9778 17.2589 28.9465 14.7773 27.073 12.9061C25.1995 11.0349 22.7015 10.0081 20.0488 10.0081C14.5716 10.0081 10.1141 14.4407 10.1141 19.8945C10.1141 21.7599 10.6355 23.5797 11.6324 25.1543L11.8673 25.5308L10.8704 29.1704L14.6289 28.1892Z" fill="url(#paint1_linear)"/>
<path fill-rule="evenodd" clip-rule="evenodd" d="M17.0638 14.9137C16.8404 14.4173 16.6055 14.4059 16.3935 14.4002C16.2216 14.3945 16.0211 14.3945 15.8206 14.3945C15.62 14.3945 15.2992 14.4687 15.0242 14.7653C14.7492 15.062 13.9814 15.7808 13.9814 17.2469C13.9814 18.7073 15.0528 20.1221 15.2018 20.3218C15.3508 20.5215 17.2701 23.6192 20.3009 24.8115C22.8218 25.8041 23.3375 25.6044 23.8818 25.5531C24.4318 25.5017 25.6464 24.8343 25.8985 24.1383C26.1449 23.4423 26.1449 22.849 26.0704 22.7235C25.9959 22.598 25.7954 22.5238 25.4975 22.3755C25.1995 22.2272 23.7328 21.5084 23.4578 21.4057C23.1828 21.3087 22.9823 21.2574 22.7875 21.554C22.5869 21.8507 22.014 22.5181 21.8421 22.7178C21.6702 22.9175 21.4926 22.9403 21.1947 22.792C20.8968 22.6436 19.9342 22.3299 18.7941 21.3144C17.9061 20.5272 17.3045 19.5517 17.1326 19.255C16.9607 18.9584 17.1154 18.7986 17.2644 18.6503C17.3961 18.5191 17.5623 18.3023 17.7113 18.1312C17.8602 17.96 17.9118 17.8345 18.0092 17.6348C18.1066 17.4352 18.0607 17.264 17.9863 17.1157C17.9061 16.9731 17.3274 15.5013 17.0638 14.9137Z" fill="white"/>
</g>
<defs>
<filter id="filter0_ddd" x="5" y="6" width="30.0003" height="30" filterUnits="userSpaceOnUse" color-interpolation-filters="sRGB">
<feFlood flood-opacity="0" result="BackgroundImageFix"/>
<feColorMatrix in="SourceAlpha" type="matrix" values="0 0 0 0 0 0 0 0 0 0 0 0 0 0 0 0 0 0 127 0"/>
<feOffset dy="1"/>
<feGaussianBlur stdDeviation="1.5"/>
<feColorMatrix type="matrix" values="0 0 0 0 0 0 0 0 0 0 0 0 0 0 0 0 0 0 0.1 0"/>
<feBlend mode="normal" in2="BackgroundImageFix" result="effect1_dropShadow"/>
<feColorMatrix in="SourceAlpha" type="matrix" values="0 0 0 0 0 0 0 0 0 0 0 0 0 0 0 0 0 0 127 0"/>
<feOffset dy="2"/>
<feGaussianBlur stdDeviation="1"/>
<feColorMatrix type="matrix" values="0 0 0 0 0 0 0 0 0 0 0 0 0 0 0 0 0 0 0.06 0"/>
<feBlend mode="normal" in2="effect1_dropShadow" result="effect2_dropShadow"/>
<feColorMatrix in="SourceAlpha" type="matrix" values="0 0 0 0 0 0 0 0 0 0 0 0 0 0 0 0 0 0 127 0"/>
<feOffset/>
<feGaussianBlur stdDeviation="1"/>
<feColorMatrix type="matrix" values="0 0 0 0 0 0 0 0 0 0 0 0 0 0 0 0 0 0 0.07 0"/>
<feBlend mode="normal" in2="effect2_dropShadow" result="effect3_dropShadow"/>
<feBlend mode="normal" in="SourceGraphic" in2="effect3_dropShadow" result="shape"/>
</filter>
<linearGradient id="paint0_linear" x1="19.9983" y1="31.5825" x2="19.9983" y2="8.41007" gradientUnits="userSpaceOnUse">
<stop stop-color="#20B038"/>
<stop offset="1" stop-color="#60D66A"/>
</linearGradient>
<linearGradient id="paint1_linear" x1="19.9983" y1="31.9984" x2="19.9983" y2="7.99501" gradientUnits="userSpaceOnUse">
<stop stop-color="#F9F9F9"/>
<stop offset="1" stop-color="white"/>
</linearGradient>
</defs>
</svg>
